<svg xmlns="http://www.w3.org/2000/svg" viewBox="0 0 200 200">
  <!-- Background Circle -->
  <circle cx="100" cy="100" r="90" fill="url(#grad1)" />
  
  <!-- Gradient Definition -->
  <defs>
    <linearGradient id="grad1" x1="0%" y1="0%" x2="100%" y2="100%">
      <stop offset="0%" style="stop-color:#1a237e;stop-opacity:1" />
      <stop offset="100%" style="stop-color:#0d47a1;stop-opacity:1" />
    </linearGradient>
  </defs>
  
  <!-- Circuit Board Elements -->
  <path d="M50 100 h100 M100 50 v100 M70 70 L130 130 M130 70 L70 130" stroke="#64b5f6" stroke-width="2" fill="none" />
  <circle cx="50" cy="100" r="4" fill="#64ffda" />
  <circle cx="150" cy="100" r="4" fill="#64ffda" />
  <circle cx="100" cy="50" r="4" fill="#64ffda" />
  <circle cx="100" cy="150" r="4" fill="#64ffda" />
  <circle cx="70" cy="70" r="4" fill="#64ffda" />
  <circle cx="130" cy="130" r="4" fill="#64ffda" />
  <circle cx="130" cy="70" r="4" fill="#64ffda" />
  <circle cx="70" cy="130" r="4" fill="#64ffda" />
  
  <!-- Data Flow Line -->
  <path d="M75 120 L85 100 L95 110 L105 90 L115 100 L125 80" stroke="#bbdefb" stroke-width="2" fill="none" />
  
  <!-- Circuit Ring -->
  <circle cx="100" cy="100" r="65" stroke="#4fc3f7" stroke-width="3" fill="none" stroke-dasharray="4,2" />
  
  <!-- Gujarati Letter "મિ" (mi) -->
  <text x="100" y="115" fill="#ffffff" font-family="Arial, sans-serif" font-size="55" text-anchor="middle">મિ</text>
</svg>
